<?xml version="1.0" encoding="iso-8859-1"?>
<!-- Generator: Adobe Illustrator 18.1.1, SVG Export Plug-In . SVG Version: 6.00 Build 0)  -->
<svg xmlns="http://www.w3.org/2000/svg" xmlns:xlink="http://www.w3.org/1999/xlink" version="1.1" id="Capa_1" x="0px" y="0px" viewBox="0 0 18.828 18.828" style="enable-background:new 0 0 18.828 18.828;" xml:space="preserve" width="512px" height="512px">
<g>
	<g>
		<path d="M15.121,5.707c-0.391-0.391-1.023-0.391-1.414,0s-0.391,1.023,0,1.414L15,8.414h-4.586V3.828    l1.293,1.293c0.195,0.195,0.451,0.293,0.707,0.293c0.256,0,0.512-0.098,0.707-0.293c0.391-0.391,0.391-1.023,0-1.414L9.414,0    L5.707,3.707c-0.391,0.391-0.391,1.023,0,1.414s1.023,0.391,1.414,0l1.293-1.293v4.586H3.828l1.293-1.293    c0.391-0.391,0.391-1.023,0-1.414s-1.023-0.391-1.414,0L0,9.414l3.707,3.707c0.195,0.195,0.451,0.293,0.707,0.293    s0.512-0.098,0.707-0.293c0.391-0.391,0.391-1.023,0-1.414l-1.293-1.293h4.586V15l-1.293-1.293c-0.391-0.391-1.023-0.391-1.414,0    c-0.391,0.391-0.391,1.023,0,1.414l3.707,3.707l3.707-3.707c0.391-0.391,0.391-1.023,0-1.414c-0.391-0.391-1.023-0.391-1.414,0    L10.414,15v-4.586H15l-1.293,1.293c-0.391,0.391-0.391,1.023,0,1.414c0.195,0.195,0.451,0.293,0.707,0.293    s0.512-0.098,0.707-0.293l3.707-3.707L15.121,5.707z" fill="#FFFFFF"/>
	</g>
</g>
</svg>
